<svg width="43" height="43" viewBox="0 0 43 43" fill="none" xmlns="http://www.w3.org/2000/svg">
<g clip-path="url(#clip0_89_827)">
<path d="M17.9167 30.4583C24.8432 30.4583 30.4583 24.8432 30.4583 17.9167C30.4583 10.9901 24.8432 5.375 17.9167 5.375C10.9901 5.375 5.375 10.9901 5.375 17.9167C5.375 24.8432 10.9901 30.4583 17.9167 30.4583Z" stroke="white" stroke-width="2.5" stroke-linecap="round" stroke-linejoin="round"/>
<path d="M37.625 37.625L26.875 26.875" stroke="white" stroke-width="2.5" stroke-linecap="round" stroke-linejoin="round"/>
<path d="M17.9165 23.2917V23.3104" stroke="white" stroke-width="2.5" stroke-linecap="round" stroke-linejoin="round"/>
<path d="M17.9165 17.9167C18.3675 17.9169 18.8113 17.8036 19.207 17.5873C19.6027 17.371 19.9376 17.0586 20.1808 16.6789C20.4241 16.2991 20.5679 15.8643 20.599 15.4144C20.6301 14.9645 20.5474 14.514 20.3587 14.1044C20.17 13.6949 19.8812 13.3394 19.519 13.0707C19.1568 12.802 18.7328 12.6288 18.2861 12.567C17.8394 12.5052 17.3843 12.5568 16.9628 12.7171C16.5413 12.8774 16.1669 13.1411 15.874 13.4841" stroke="white" stroke-width="2.5" stroke-linecap="round" stroke-linejoin="round"/>
</g>
<defs>
<clipPath id="clip0_89_827">
<rect width="43" height="43" fill="white"/>
</clipPath>
</defs>
</svg>
