<svg width="32" height="35" viewBox="0 0 32 35" fill="none" xmlns="http://www.w3.org/2000/svg">
<path d="M10.5956 7.39338L13.4222 12.1701C8.83556 12.6267 5.33333 16.4024 5.33333 20.9508C5.33333 23.2796 6.26984 25.513 7.93683 27.1597C9.60382 28.8064 11.8647 29.7316 14.2222 29.7316C17.8667 29.7316 20.9956 27.5715 22.3644 24.4631H17.7778V20.9508H32V24.4631H28C27.2816 27.182 25.759 29.6277 23.6267 31.4877H28.4444V35H1.13362e-06V31.4877H4.81778C3.30306 30.1703 2.08993 28.5491 1.25919 26.7322C0.428458 24.9153 -0.000805113 22.9444 1.13362e-06 20.9508C1.13362e-06 14.576 4.37333 9.00903 10.5956 7.39338ZM16.4267 0L17.7778 2.28299L19.3067 1.40492L25.5289 12.0472L19.36 15.5595L13.1378 4.91721L14.6844 4.03914L13.3333 1.75615L16.4267 0Z" fill="white"/>
</svg>
